<svg width="48" height="48" viewBox="0 0 48 48" fill="none" xmlns="http://www.w3.org/2000/svg">
    <path
        d="M39.5113 4.24696H35.1554V2.3033C35.1554 1.55441 34.4419 0.947266 33.5618 0.947266C32.6816 0.947266 31.9681 1.55441 31.9681 2.3033V4.24696H25.5936V2.3033C25.5936 1.55441 24.8801 0.947266 24 0.947266C23.1199 0.947266 22.4064 1.55441 22.4064 2.3033V4.24696H16.0319V2.3033C16.0319 1.55441 15.3184 0.947266 14.4383 0.947266C13.5581 0.947266 12.8446 1.55441 12.8446 2.3033V4.24696H8.48872C6.43836 4.24696 4.77026 5.66637 4.77026 7.41104V43.8885C4.77026 45.6331 6.43836 47.0525 8.48872 47.0525H39.5113C41.5616 47.0525 43.2297 45.6331 43.2297 43.8885V7.41104C43.2297 5.66637 41.5616 4.24696 39.5113 4.24696ZM40.0425 43.8885C40.0425 44.1377 39.8042 44.3405 39.5113 44.3405H8.48872C8.19581 44.3405 7.95751 44.1377 7.95751 43.8885V7.41104C7.95751 7.16181 8.19581 6.95903 8.48872 6.95903H12.8446V8.90269C12.8446 9.65158 13.5581 10.2587 14.4383 10.2587C15.3184 10.2587 16.0319 9.65158 16.0319 8.90269V6.95903H22.4064V8.90269C22.4064 9.65158 23.1199 10.2587 24 10.2587C24.8801 10.2587 25.5936 9.65158 25.5936 8.90269V6.95903H31.9681V8.90269C31.9681 9.65158 32.6816 10.2587 33.5618 10.2587C34.4419 10.2587 35.1554 9.65158 35.1554 8.90269V6.95903H39.5113C39.8042 6.95903 40.0425 7.16181 40.0425 7.41104V43.8885Z"
        fill="#0094FD" />
    <path
        d="M34.5082 22.7319H13.7608C12.806 22.7319 12.0319 23.6274 12.0319 24.7319C12.0319 25.8365 12.806 26.7319 13.7608 26.7319H34.5082C35.463 26.7319 36.2371 25.8365 36.2371 24.7319C36.2371 23.6274 35.463 22.7319 34.5082 22.7319Z"
        fill="#0094FD" />
    <path
        d="M34.5082 13.0498H13.7608C12.806 13.0498 12.0319 13.9453 12.0319 15.0498C12.0319 16.1543 12.806 17.0498 13.7608 17.0498H34.5082C35.463 17.0498 36.2371 16.1543 36.2371 15.0498C36.2371 13.9453 35.463 13.0498 34.5082 13.0498Z"
        fill="#0094FD" />
    <path
        d="M34.5082 32.4141H13.7608C12.806 32.4141 12.0319 33.3095 12.0319 34.4141C12.0319 35.5186 12.806 36.4141 13.7608 36.4141H34.5082C35.463 36.4141 36.2371 35.5186 36.2371 34.4141C36.2371 33.3095 35.463 32.4141 34.5082 32.4141Z"
        fill="#0094FD" />
</svg>
