<?xml version="1.0" encoding="UTF-8"?>
<svg id="Layer_1" width="22" height="22" xmlns="http://www.w3.org/2000/svg" viewBox="0 0 16 15.92">
    <defs>
        <style>
            .cls-1 {
                stroke-linecap: square;
                stroke-miterlimit: 5;
            }

            .cls-1,
            .cls-2 {
                fill: none;
                stroke: #fff;
            }

            .cls-2 {
                stroke-miterlimit: 10;
            }

            .cls-3 {
                fill: #fff;
                stroke-width: 0px;
            }
        </style>
    </defs>
    <polyline class="cls-2" points="4.7 9 .5 9 .5 .5 15.5 .5 15.5 9 11.27 9" />
    <path class="cls-3"
        d="m8,6c1.38,0,2.5,1.12,2.5,2.5s-1.12,2.5-2.5,2.5-2.5-1.12-2.5-2.5,1.12-2.5,2.5-2.5m0-1c-1.93,0-3.5,1.57-3.5,3.5s1.57,3.5,3.5,3.5,3.5-1.57,3.5-3.5-1.57-3.5-3.5-3.5h0Z" />
    <polyline class="cls-1" points="6 11 6 15 8 13.71 10 15 10 11" />
    <line class="cls-2" x1="2.5" y1="3.5" x2="13" y2="3.5" />
    <line class="cls-2" x1="2.5" y1="5.5" x2="4" y2="5.5" />
    <path class="cls-3"
        d="m8,8c.28,0,.5.22.5.5s-.22.5-.5.5-.5-.22-.5-.5.22-.5.5-.5m0-1c-.83,0-1.5.67-1.5,1.5s.67,1.5,1.5,1.5,1.5-.67,1.5-1.5-.67-1.5-1.5-1.5h0Z" />
</svg>
