<?xml version="1.0" encoding="UTF-8"?>
<svg id="Layer_1" data-name="Layer 1" xmlns="http://www.w3.org/2000/svg" viewBox="0 0 47.5 47.24">
  <defs>
    <style>
      .cls-1 {
        stroke-linecap: square;
        stroke-miterlimit: 5;
      }

      .cls-1, .cls-2 {
        fill: none;
        stroke: #0094fd;
        stroke-width: 3.5px;
      }

      .cls-2 {
        stroke-miterlimit: 10;
      }

      .cls-3 {
        fill: #0094fd;
        stroke-width: 0px;
      }
    </style>
  </defs>
  <polyline class="cls-2" points="21.31 28.4 1.75 28.4 1.75 1.75 45.75 1.75 45.75 28.4 36.95 28.4"/>
  <path class="cls-3" d="m29.75,17.62c4.03,0,7.31,3.28,7.31,7.31s-3.28,7.31-7.31,7.31-7.31-3.28-7.31-7.31,3.28-7.31,7.31-7.31m0-3.5c-5.97,0-10.81,4.84-10.81,10.81s4.84,10.81,10.81,10.81,10.81-4.84,10.81-10.81-4.84-10.81-10.81-10.81h0Z"/>
  <polyline class="cls-1" points="25.25 33.75 25.25 43.49 29.75 39.71 34.25 43.49 34.25 33.75"/>
  <line class="cls-2" x1="7.61" y1="9.27" x2="38.42" y2="9.27"/>
  <line class="cls-2" x1="7.61" y1="17.13" x2="16.75" y2="17.13"/>
  <polygon class="cls-2" points="29.75 24.47 29.9 24.78 30.24 24.83 29.99 25.06 30.05 25.4 29.75 25.24 29.45 25.4 29.51 25.06 29.26 24.83 29.6 24.78 29.75 24.47"/>
</svg>