<?xml version="1.0" encoding="UTF-8"?>
<svg width="40" height="41" id="Layer_1" data-name="Layer 1" xmlns="http://www.w3.org/2000/svg" viewBox="0 0 16.12 16">
  <defs>
    <style>
      .cls-1 {
        stroke-miterlimit: 10;
      }

      .cls-1, .cls-2, .cls-3 {
        fill: none;
      }

      .cls-1, .cls-3 {
        stroke: #0094fd;
        stroke-width: 1.3px;
      }

      .cls-2, .cls-4 {
        stroke-width: 0px;
      }

      .cls-3 {
        stroke-linejoin: round;
      }

      .cls-4 {
        fill: #0094fd;
      }
    </style>
  </defs>
  <rect class="cls-2" width="16" height="16"/>
  <path class="cls-1" d="m8.05,2.16c.38-.02.77.04,1.13.19.36.14.69.36.96.64.27.28.49.62.63.99.14.37.21.77.19,1.17.02.4-.05.8-.19,1.17-.14.37-.36.71-.63.99-.27.28-.6.5-.96.64-.36.14-.74.21-1.13.19-.38.01-.76-.05-1.12-.2-.36-.14-.68-.36-.95-.64-.27-.28-.48-.61-.62-.98-.14-.37-.2-.76-.19-1.16.02-.78.33-1.53.86-2.08.53-.55,1.25-.88,2.01-.9Z"/>
  <path class="cls-3" d="m7.99,2.57V0"/>
  <path class="cls-3" d="m5.47,5.24h-2.49"/>
  <path class="cls-3" d="m13.02,5.24h-2.49"/>
  <path class="cls-3" d="m8.18,10.29v-2.44"/>
  <path class="cls-3" d="m9.96,3.39l1.8-1.74"/>
  <path class="cls-3" d="m4.3,1.66l1.79,1.74"/>
  <path class="cls-3" d="m4.48,8.63l1.82-1.61"/>
  <path class="cls-3" d="m9.82,7.22l1.86,1.41"/>
  <path class="cls-4" d="m8.27,15.99c-.06,0-.13,0-.19,0-.22.02-.53-.04-.83-.16-.29-.12-.54-.29-.77-.52-.22-.23-.38-.49-.5-.79-.11-.3-.16-.6-.15-.92,0-.6.24-1.18.67-1.62.43-.44.99-.69,1.59-.7.31-.02.62.02.92.12.31.11.58.28.82.5.23.22.42.49.54.79.13.3.19.62.19.94s-.06.64-.19.94c-.13.3-.31.57-.54.79-.24.22-.51.39-.81.5-.25.09-.5.13-.76.13Zm-.16-1.5c.2,0,.31,0,.41-.04.1-.04.2-.1.28-.17.08-.08.15-.18.2-.29.05-.11.07-.23.07-.35s-.02-.24-.07-.36c-.05-.11-.11-.21-.2-.29-.08-.08-.18-.14-.28-.18-.1-.04-.21-.05-.32-.04h-.05c-.21,0-.41.09-.56.25-.16.16-.25.38-.25.62,0,.13.01.25.05.35.04.1.1.2.17.28.07.08.16.13.25.17.1.04.19.06.29.05Z"/>
  <path class="cls-3" d="m6.5,13.63H0"/>
  <path class="cls-3" d="m16.12,13.63h-6.7"/>
</svg>