<svg width="32" height="32" viewBox="0 0 16 16" fill="none" xmlns="http://www.w3.org/2000/svg">
    <path
        d="M5.99996 13.6106V8.94392C5.99996 8.57573 6.29844 8.27725 6.66663 8.27725H9.33329C9.70148 8.27725 9.99996 8.57573 9.99996 8.94392V13.6106M2.66663 12.2773V7.2379C2.66663 6.43808 3.02563 5.68049 3.64466 5.17401L7.15564 2.30139C7.6468 1.89954 8.35312 1.89954 8.84428 2.30139L12.3553 5.17401C12.9743 5.68049 13.3333 6.43808 13.3333 7.2379V12.2773C13.3333 13.0136 12.7363 13.6106 12 13.6106H10.6666H5.33329H3.99996C3.26358 13.6106 2.66663 13.0136 2.66663 12.2773Z"
        stroke="#0094FD" stroke-width="1.2" stroke-linecap="round" />
</svg>
