<svg width="48" height="49" viewBox="0 0 48 49" fill="none" xmlns="http://www.w3.org/2000/svg">
    <path
        d="M43.3582 8.26218L25.2101 0.633078C24.7555 0.442016 24.2444 0.441922 23.7899 0.633078L5.64176 8.26218C4.95056 8.5528 4.5 9.23605 4.5 9.99384V19.2681C4.5 32.038 12.1231 43.525 23.8002 48.3507C24.2487 48.5361 24.7512 48.5361 25.1998 48.3507C36.8768 43.525 44.5 32.0381 44.5 19.2681V9.99384C44.5 9.23605 44.0495 8.5528 43.3582 8.26218ZM40.7963 19.2681C40.7963 30.1239 34.5 40.1173 24.5 44.5781C14.7672 40.2365 8.2037 30.418 8.2037 19.2681V11.2456L24.5 4.39489L40.7963 11.2456V19.2681ZM22.4531 25.5881L30.4128 17.5291C31.1359 16.7969 32.3084 16.7968 33.0317 17.5291C33.7549 18.2614 33.7548 19.4485 33.0316 20.1807L23.7626 29.5656C23.0393 30.2979 21.8668 30.2977 21.1437 29.5656L15.9683 24.3255C15.2451 23.5932 15.2451 22.4061 15.9683 21.6739C16.6916 20.9417 17.8641 20.9416 18.5872 21.6739L22.4531 25.5881Z"
        fill="#0094FD" stroke="#0094FD" stroke-width="0.1" />
</svg>
