<svg width="48" height="48" viewBox="0 0 48 48" fill="none" xmlns="http://www.w3.org/2000/svg">
    <g clip-path="url(#clip0_7_7109)">
        <path
            d="M40.8542 43.4583H7.72917C3.46708 43.4583 0 39.9913 0 35.7292C0 31.4671 3.46708 28 7.72917 28H40.8542C45.1163 28 48.5833 31.4671 48.5833 35.7292C48.5833 39.9913 45.1163 43.4583 40.8542 43.4583ZM7.72917 30.2083C4.68388 30.2083 2.20833 32.6839 2.20833 35.7292C2.20833 38.7745 4.68388 41.25 7.72917 41.25H40.8542C43.8995 41.25 46.375 38.7745 46.375 35.7292C46.375 32.6839 43.8995 30.2083 40.8542 30.2083H7.72917Z"
            fill="#0094FD" />
        <path
            d="M40.8542 29.4583H7.72917C3.46708 29.4583 0 25.9913 0 21.7292C0 17.4671 3.46708 14 7.72917 14H40.8542C45.1163 14 48.5833 17.4671 48.5833 21.7292C48.5833 25.9913 45.1163 29.4583 40.8542 29.4583ZM7.72917 16.2083C4.68388 16.2083 2.20833 18.6839 2.20833 21.7292C2.20833 24.7745 4.68388 27.25 7.72917 27.25H40.8542C43.8995 27.25 46.375 24.7745 46.375 21.7292C46.375 18.6839 43.8995 16.2083 40.8542 16.2083H7.72917Z"
            fill="#0094FD" />
        <path
            d="M40.8542 15.4583H7.72917C3.46708 15.4583 0 11.9913 0 7.72917C0 3.46708 3.46708 0 7.72917 0H40.8542C45.1163 0 48.5833 3.46708 48.5833 7.72917C48.5833 11.9913 45.1163 15.4583 40.8542 15.4583ZM7.72917 2.20833C4.68388 2.20833 2.20833 4.68388 2.20833 7.72917C2.20833 10.7745 4.68388 13.25 7.72917 13.25H40.8542C43.8995 13.25 46.375 10.7745 46.375 7.72917C46.375 4.68388 43.8995 2.20833 40.8542 2.20833H7.72917Z"
            fill="#0094FD" />
        <path
            d="M9.9375 39.0415C8.11121 39.0415 6.625 37.5553 6.625 35.729C6.625 33.9027 8.11121 32.4165 9.9375 32.4165C11.7638 32.4165 13.25 33.9027 13.25 35.729C13.25 37.5553 11.7638 39.0415 9.9375 39.0415ZM9.9375 34.6248C9.33021 34.6248 8.83333 35.1217 8.83333 35.729C8.83333 36.3363 9.33021 36.8332 9.9375 36.8332C10.5448 36.8332 11.0417 36.3363 11.0417 35.729C11.0417 35.1217 10.5448 34.6248 9.9375 34.6248Z"
            fill="#0094FD" />
        <path
            d="M9.9375 25.0415C8.11121 25.0415 6.625 23.5553 6.625 21.729C6.625 19.9027 8.11121 18.4165 9.9375 18.4165C11.7638 18.4165 13.25 19.9027 13.25 21.729C13.25 23.5553 11.7638 25.0415 9.9375 25.0415ZM9.9375 20.6248C9.33021 20.6248 8.83333 21.1217 8.83333 21.729C8.83333 22.3363 9.33021 22.8332 9.9375 22.8332C10.5448 22.8332 11.0417 22.3363 11.0417 21.729C11.0417 21.1217 10.5448 20.6248 9.9375 20.6248Z"
            fill="#0094FD" />
        <path
            d="M9.9375 11.0415C8.11121 11.0415 6.625 9.5553 6.625 7.729C6.625 5.90271 8.11121 4.4165 9.9375 4.4165C11.7638 4.4165 13.25 5.90271 13.25 7.729C13.25 9.5553 11.7638 11.0415 9.9375 11.0415ZM9.9375 6.62484C9.33021 6.62484 8.83333 7.12171 8.83333 7.729C8.83333 8.3363 9.33021 8.83317 9.9375 8.83317C10.5448 8.83317 11.0417 8.3363 11.0417 7.729C11.0417 7.12171 10.5448 6.62484 9.9375 6.62484Z"
            fill="#0094FD" />
        <path
            d="M20.979 39.0415C19.1527 39.0415 17.6665 37.5553 17.6665 35.729C17.6665 33.9027 19.1527 32.4165 20.979 32.4165C22.8053 32.4165 24.2915 33.9027 24.2915 35.729C24.2915 37.5553 22.8053 39.0415 20.979 39.0415ZM20.979 34.6248C20.3717 34.6248 19.8748 35.1217 19.8748 35.729C19.8748 36.3363 20.3717 36.8332 20.979 36.8332C21.5863 36.8332 22.0832 36.3363 22.0832 35.729C22.0832 35.1217 21.5863 34.6248 20.979 34.6248Z"
            fill="#0094FD" />
        <path
            d="M20.979 25.0415C19.1527 25.0415 17.6665 23.5553 17.6665 21.729C17.6665 19.9027 19.1527 18.4165 20.979 18.4165C22.8053 18.4165 24.2915 19.9027 24.2915 21.729C24.2915 23.5553 22.8053 25.0415 20.979 25.0415ZM20.979 20.6248C20.3717 20.6248 19.8748 21.1217 19.8748 21.729C19.8748 22.3363 20.3717 22.8332 20.979 22.8332C21.5863 22.8332 22.0832 22.3363 22.0832 21.729C22.0832 21.1217 21.5863 20.6248 20.979 20.6248Z"
            fill="#0094FD" />
        <path
            d="M20.979 11.0415C19.1527 11.0415 17.6665 9.5553 17.6665 7.729C17.6665 5.90271 19.1527 4.4165 20.979 4.4165C22.8053 4.4165 24.2915 5.90271 24.2915 7.729C24.2915 9.5553 22.8053 11.0415 20.979 11.0415ZM20.979 6.62484C20.3717 6.62484 19.8748 7.12171 19.8748 7.729C19.8748 8.3363 20.3717 8.83317 20.979 8.83317C21.5863 8.83317 22.0832 8.3363 22.0832 7.729C22.0832 7.12171 21.5863 6.62484 20.979 6.62484Z"
            fill="#0094FD" />
    </g>
    <defs>
        <clipPath id="clip0_7_7109">
            <rect width="48" height="48" fill="white" />
        </clipPath>
    </defs>
</svg>
