<svg width="40" height="41" viewBox="0 0 40 41" fill="none" xmlns="http://www.w3.org/2000/svg">
    <path
        d="M12.0303 7.17593L10.6303 5.77506C9.22157 4.36541 9.72298 2 11.7153 2C14.3981 2 16.8269 3.0881 18.585 4.84732C20.3431 6.60654 21.4305 9.03688 21.4305 11.7214C21.4305 12.2149 21.3938 12.6998 21.3229 13.1735C21.1488 14.3362 21.3896 15.5699 22.2309 16.3907L37.0975 32.1419C38.2902 33.3055 38.3023 35.22 37.1245 36.3986L35.4003 38.1239C34.2329 39.292 32.3401 39.292 31.1727 38.1239L16.2395 22.2308C15.4286 21.4194 14.2289 21.1843 13.0935 21.3456C12.6433 21.4096 12.1831 21.4427 11.7153 21.4427C9.03247 21.4427 6.60366 20.3546 4.84554 18.5954C3.08742 16.8362 2 14.4058 2 11.7214C2 9.72781 4.36393 9.22609 5.7727 10.6357L7.17269 12.0366C8.34009 13.2047 10.2328 13.2047 11.4002 12.0366L12.0303 11.4061C13.1977 10.238 13.1977 8.34406 12.0303 7.17593Z"
        stroke="#0094FD" stroke-width="3" stroke-linecap="round" />
</svg>
