<svg width="48" height="48" viewBox="0 0 48 48" fill="none" xmlns="http://www.w3.org/2000/svg">
    <path fill-rule="evenodd" clip-rule="evenodd"
        d="M44.488 24.474C44.449 24.669 44.404 24.863 44.372 25.059C43.743 28.977 40.373 32.063 36.08 32.047C33.434 32.036 30.787 32.044 28.141 32.045C27.75 32.046 27.41 31.971 27.287 31.532C27.186 31.171 27.379 30.807 27.746 30.714C27.927 30.668 28.12 30.662 28.308 30.661C31.063 30.651 33.818 30.691 36.571 30.628C39.835 30.553 42.66 27.885 43.034 24.625C43.509 20.496 40.491 16.997 36.335 16.854C35.591 16.829 35.354 16.552 35.43 15.801C35.972 10.484 32.385 5.627 27.148 4.586C21.903 3.545 16.752 6.648 15.204 11.782C15.173 11.885 15.142 11.988 15.109 12.091C14.937 12.618 14.751 12.763 14.188 12.733C13.089 12.675 12.011 12.755 10.94 13.038C7.69 13.895 5.057 16.874 4.518 20.206C3.81 24.58 6.364 28.789 10.504 30.192C11.512 30.533 12.55 30.664 13.609 30.662C15.486 30.658 17.363 30.659 19.24 30.663C19.428 30.664 19.622 30.669 19.801 30.719C20.126 30.809 20.286 31.05 20.274 31.386C20.26 31.722 20.081 31.939 19.75 32.014C19.646 32.038 19.535 32.046 19.428 32.045C17.214 32.037 14.997 32.094 12.786 31.999C9.703 31.868 7.196 30.503 5.263 28.113C3.955 26.497 3.233 24.632 3.059 22.556C3.051 22.465 3.02 22.376 3 22.286C3 21.882 3 21.476 3 21.071C3.069 20.607 3.122 20.139 3.212 19.679C4.175 14.786 8.472 11.285 13.468 11.332C13.801 11.335 13.925 11.235 14.035 10.933C15.504 6.926 18.317 4.392 22.447 3.33C23.056 3.174 23.689 3.107 24.311 3C24.878 3 25.445 3 26.012 3C26.62 3.11 27.236 3.189 27.835 3.337C32.615 4.511 36.019 8.24 36.744 13.114C36.858 13.884 36.858 14.669 36.914 15.479C37.031 15.5 37.173 15.53 37.316 15.552C40.4 16.039 42.585 17.723 43.815 20.574C44.166 21.387 44.27 22.305 44.487 23.176C44.488 23.61 44.488 24.042 44.488 24.474Z"
        fill="#0094FD" />
    <path fill-rule="evenodd" clip-rule="evenodd"
        d="M23.0149 44.4886C23.0269 44.3426 23.0489 44.1946 23.0489 44.0486C23.0509 35.7176 23.0499 27.3866 23.0499 19.0556C23.0499 18.9216 23.0499 18.7886 23.0499 18.6726C20.8689 20.8536 18.6949 23.0286 16.5069 25.2156C16.1079 24.8026 15.8019 24.4866 15.5239 24.1986C18.2649 21.4556 21.0189 18.6996 23.7429 15.9746C26.4669 18.6986 29.2219 21.4536 31.9869 24.2186C31.7049 24.4886 31.3939 24.7856 31.0649 25.1016C28.9039 22.9446 26.7259 20.7676 24.5469 18.5916C24.5109 18.6066 24.4749 18.6206 24.4389 18.6356C24.4389 18.7756 24.4389 18.9146 24.4389 19.0546C24.4389 27.3846 24.4379 35.7156 24.4399 44.0466C24.4399 44.1936 24.4619 44.3406 24.4739 44.4876C23.9869 44.4886 23.5009 44.4886 23.0149 44.4886Z"
        fill="#0094FD" />
</svg>
